<mxfile host="app.diagrams.net" modified="2024-03-09T13:01:45.770Z" agent="Mozilla/5.0 (Windows NT 10.0; Win64; x64) AppleWebKit/537.36 (KHTML, like Gecko) Chrome/122.0.0.0 Safari/537.36" etag="s0nKGTJ2glwwPjjPotDk" version="23.1.8" type="device">
  <diagram name="Page-1" id="DcTuXLaZdFANY0PcZAgU">
    <mxGraphModel dx="794" dy="412" grid="1" gridSize="10" guides="1" tooltips="1" connect="1" arrows="1" fold="1" page="1" pageScale="1" pageWidth="850" pageHeight="1100" math="0" shadow="0">
      <root>
        <mxCell id="0" />
        <mxCell id="1" parent="0" />
        <mxCell id="9_lnwiY_wpuFx7aFg6oS-3" value="" style="edgeStyle=orthogonalEdgeStyle;rounded=0;orthogonalLoop=1;jettySize=auto;html=1;" edge="1" parent="1" source="9_lnwiY_wpuFx7aFg6oS-1" target="9_lnwiY_wpuFx7aFg6oS-2">
          <mxGeometry relative="1" as="geometry" />
        </mxCell>
        <mxCell id="9_lnwiY_wpuFx7aFg6oS-1" value="Inicio" style="ellipse;whiteSpace=wrap;html=1;" vertex="1" parent="1">
          <mxGeometry x="340" y="10" width="120" height="80" as="geometry" />
        </mxCell>
        <mxCell id="9_lnwiY_wpuFx7aFg6oS-5" value="" style="edgeStyle=orthogonalEdgeStyle;rounded=0;orthogonalLoop=1;jettySize=auto;html=1;" edge="1" parent="1" source="9_lnwiY_wpuFx7aFg6oS-2" target="9_lnwiY_wpuFx7aFg6oS-4">
          <mxGeometry relative="1" as="geometry" />
        </mxCell>
        <mxCell id="9_lnwiY_wpuFx7aFg6oS-2" value="int precocomesconto;&lt;br&gt;int precosemDesconto;&lt;br&gt;float desconto;&lt;br&gt;int *price, float discount;" style="rounded=0;whiteSpace=wrap;html=1;" vertex="1" parent="1">
          <mxGeometry x="320" y="130" width="160" height="60" as="geometry" />
        </mxCell>
        <mxCell id="9_lnwiY_wpuFx7aFg6oS-7" value="" style="edgeStyle=orthogonalEdgeStyle;rounded=0;orthogonalLoop=1;jettySize=auto;html=1;" edge="1" parent="1" source="9_lnwiY_wpuFx7aFg6oS-4" target="9_lnwiY_wpuFx7aFg6oS-6">
          <mxGeometry relative="1" as="geometry" />
        </mxCell>
        <mxCell id="9_lnwiY_wpuFx7aFg6oS-4" value="printf(&quot;Coloque o preÃ§o do produto)&quot;;" style="shape=display;whiteSpace=wrap;html=1;" vertex="1" parent="1">
          <mxGeometry x="302.5" y="230" width="195" height="70" as="geometry" />
        </mxCell>
        <mxCell id="9_lnwiY_wpuFx7aFg6oS-9" value="" style="edgeStyle=orthogonalEdgeStyle;rounded=0;orthogonalLoop=1;jettySize=auto;html=1;" edge="1" parent="1" source="9_lnwiY_wpuFx7aFg6oS-6" target="9_lnwiY_wpuFx7aFg6oS-8">
          <mxGeometry relative="1" as="geometry" />
        </mxCell>
        <mxCell id="9_lnwiY_wpuFx7aFg6oS-6" value="&amp;amp;precocomDesconto;" style="shape=manualInput;whiteSpace=wrap;html=1;" vertex="1" parent="1">
          <mxGeometry x="335" y="330" width="130" height="80" as="geometry" />
        </mxCell>
        <mxCell id="9_lnwiY_wpuFx7aFg6oS-11" value="" style="edgeStyle=orthogonalEdgeStyle;rounded=0;orthogonalLoop=1;jettySize=auto;html=1;" edge="1" parent="1" source="9_lnwiY_wpuFx7aFg6oS-8" target="9_lnwiY_wpuFx7aFg6oS-10">
          <mxGeometry relative="1" as="geometry" />
        </mxCell>
        <mxCell id="9_lnwiY_wpuFx7aFg6oS-8" value="printf(&quot;Coloque o desconto)&quot;;" style="shape=display;whiteSpace=wrap;html=1;" vertex="1" parent="1">
          <mxGeometry x="302.5" y="440" width="195" height="70" as="geometry" />
        </mxCell>
        <mxCell id="9_lnwiY_wpuFx7aFg6oS-13" value="" style="edgeStyle=orthogonalEdgeStyle;rounded=0;orthogonalLoop=1;jettySize=auto;html=1;" edge="1" parent="1" source="9_lnwiY_wpuFx7aFg6oS-10" target="9_lnwiY_wpuFx7aFg6oS-12">
          <mxGeometry relative="1" as="geometry" />
        </mxCell>
        <mxCell id="9_lnwiY_wpuFx7aFg6oS-10" value="&amp;amp;desconto;" style="shape=manualInput;whiteSpace=wrap;html=1;" vertex="1" parent="1">
          <mxGeometry x="335" y="540" width="130" height="80" as="geometry" />
        </mxCell>
        <mxCell id="9_lnwiY_wpuFx7aFg6oS-15" value="" style="edgeStyle=orthogonalEdgeStyle;rounded=0;orthogonalLoop=1;jettySize=auto;html=1;" edge="1" parent="1" source="9_lnwiY_wpuFx7aFg6oS-12" target="9_lnwiY_wpuFx7aFg6oS-14">
          <mxGeometry relative="1" as="geometry" />
        </mxCell>
        <mxCell id="9_lnwiY_wpuFx7aFg6oS-12" value="precosemDesconto = precocomDesconto;" style="rounded=0;whiteSpace=wrap;html=1;" vertex="1" parent="1">
          <mxGeometry x="325" y="650" width="150" height="60" as="geometry" />
        </mxCell>
        <mxCell id="9_lnwiY_wpuFx7aFg6oS-14" value="*price = *price * (discount / 100);" style="rounded=0;whiteSpace=wrap;html=1;" vertex="1" parent="1">
          <mxGeometry x="307.5" y="740" width="185" height="60" as="geometry" />
        </mxCell>
        <mxCell id="9_lnwiY_wpuFx7aFg6oS-18" value="" style="edgeStyle=orthogonalEdgeStyle;rounded=0;orthogonalLoop=1;jettySize=auto;html=1;" edge="1" parent="1" source="9_lnwiY_wpuFx7aFg6oS-16" target="9_lnwiY_wpuFx7aFg6oS-17">
          <mxGeometry relative="1" as="geometry" />
        </mxCell>
        <mxCell id="9_lnwiY_wpuFx7aFg6oS-16" value="printf(&quot;Preco do produto sem desconto: precosemDesconto)&quot;;" style="shape=display;whiteSpace=wrap;html=1;" vertex="1" parent="1">
          <mxGeometry x="90" y="840" width="200" height="90" as="geometry" />
        </mxCell>
        <mxCell id="9_lnwiY_wpuFx7aFg6oS-20" value="" style="edgeStyle=orthogonalEdgeStyle;rounded=0;orthogonalLoop=1;jettySize=auto;html=1;" edge="1" parent="1" source="9_lnwiY_wpuFx7aFg6oS-17" target="9_lnwiY_wpuFx7aFg6oS-19">
          <mxGeometry relative="1" as="geometry" />
        </mxCell>
        <mxCell id="9_lnwiY_wpuFx7aFg6oS-17" value="printf(&quot;Preco do produto com desconto: precocomDesconto)&quot;;" style="shape=display;whiteSpace=wrap;html=1;" vertex="1" parent="1">
          <mxGeometry x="325" y="840" width="200" height="90" as="geometry" />
        </mxCell>
        <mxCell id="9_lnwiY_wpuFx7aFg6oS-19" value="printf(&quot;Valor do desconto aplicado: desconto)&quot;;" style="shape=display;whiteSpace=wrap;html=1;" vertex="1" parent="1">
          <mxGeometry x="570" y="840" width="200" height="90" as="geometry" />
        </mxCell>
        <mxCell id="9_lnwiY_wpuFx7aFg6oS-21" value="" style="endArrow=classic;html=1;rounded=0;exitX=0;exitY=0.5;exitDx=0;exitDy=0;entryX=0;entryY=0;entryDx=102.5;entryDy=0;entryPerimeter=0;" edge="1" parent="1" source="9_lnwiY_wpuFx7aFg6oS-14" target="9_lnwiY_wpuFx7aFg6oS-16">
          <mxGeometry width="50" height="50" relative="1" as="geometry">
            <mxPoint x="180" y="790" as="sourcePoint" />
            <mxPoint x="230" y="740" as="targetPoint" />
            <Array as="points">
              <mxPoint x="193" y="770" />
            </Array>
          </mxGeometry>
        </mxCell>
        <mxCell id="9_lnwiY_wpuFx7aFg6oS-23" value="Fim" style="ellipse;whiteSpace=wrap;html=1;" vertex="1" parent="1">
          <mxGeometry x="375" y="980" width="100" height="60" as="geometry" />
        </mxCell>
        <mxCell id="9_lnwiY_wpuFx7aFg6oS-24" value="" style="endArrow=classic;html=1;rounded=0;exitX=0;exitY=0;exitDx=102.5;exitDy=90;exitPerimeter=0;entryX=0.5;entryY=0;entryDx=0;entryDy=0;" edge="1" parent="1" source="9_lnwiY_wpuFx7aFg6oS-19" target="9_lnwiY_wpuFx7aFg6oS-23">
          <mxGeometry width="50" height="50" relative="1" as="geometry">
            <mxPoint x="590" y="1010" as="sourcePoint" />
            <mxPoint x="640" y="960" as="targetPoint" />
            <Array as="points">
              <mxPoint x="673" y="960" />
              <mxPoint x="425" y="960" />
            </Array>
          </mxGeometry>
        </mxCell>
      </root>
    </mxGraphModel>
  </diagram>
</mxfile>
